PathFileType	4	(X/Y/Z)	pose_F01_0-84.trc
DataRate	CameraRate	NumFrames	NumMarkers	Units	OrigDataRate	OrigDataStartFrame	OrigNumFrames
30	30	4	21	m	30	0	84
Frame#	Time	CHip			RHip			RKnee			RAnkle			RBigToe			RSmallToe			RHeel			LHip			LKnee			LAnkle			LBigToe			LSmallToe			LHeel			Neck			Nose			RShoulder			RElbow			RWrist			LShoulder			LElbow			LWrist			
		X1	Y1	Z1	X2	Y2	Z2	X3	Y3	Z3	X4	Y4	Z4	X5	Y5	Z5	X6	Y6	Z6	X7	Y7	Z7	X8	Y8	Z8	X9	Y9	Z9	X10	Y10	Z10	X11	Y11	Z11	X12	Y12	Z12	X13	Y13	Z13	X14	Y14	Z14	X15	Y15	Z15	X16	Y16	Z16	X17	Y17	Z17	X18	Y18	Z18	X19	Y19	Z19	X20	Y20	Z20	X21	Y21	Z21	
0	0.0	-0.19457242233888178	1.8307333240545112	-0.604050946562247	-0.20881620369210055	1.8324513486409573	-0.5377112619544488	-0.2158149591185031	1.706788499118495	-0.5142587646079266	-0.21497370068397964	1.580942313460392	-0.42899047764740844	-0.2781214787607984	1.5382594896248631	-0.44809902146532454	-0.268050769449567	1.5475764344700966	-0.48161296791238306	-0.20557307520371654	1.574605544953747	-0.4299156178519967	-0.1747553286962481	1.8299077954197924	-0.6751573610196674	-0.16895447300858502	1.7067139721060955	-0.6422393534751523	-0.17694834325107792	1.5820643388672908	-0.6203170369674018	-0.21019395556256654	1.5498173561211184	-0.591150078885645	-0.19785519277005864	1.5479736996140308	-0.6204883566381211	-0.17222161276883557	1.5709350065159333	-0.6067603775613932	-0.18159132540971576	1.9911178187569432	-0.6568680018118812	-0.2072530749953509	2.0512857662035344	-0.6444177198511273	-0.20353914732534506	1.9900162701160393	-0.5420645080410763	-0.2009199451050027	1.9131599117095843	-0.4956371131606565	-0.23050186629360278	1.9025984679819967	-0.5096685508428911	-0.1545844406872479	1.9916575426310816	-0.7564170962882564	-0.13257061531525074	1.9087321450178132	-0.7866649047771122	1.1176986897096268	2.0459376582213498	-2.1463439332051615
1	0.03333333333333333	-0.19486197194190544	1.8318146387134215	-0.5954332991844714	-0.2117317140280435	1.8324101428755872	-0.5298561657881389	-0.21929344128831754	1.7046208832541478	-0.49228657664466674	-0.21691975631461818	1.5801209981749207	-0.4267306568289935	-0.2781214787607984	1.5382594896248631	-0.44809902146532454	-0.268050769449567	1.5475764344700966	-0.48161296791238306	-0.20766298048647777	1.573809267835424	-0.42722875833092977	-0.1773815443233899	1.832332321036521	-0.664380447534232	-0.17417508428596745	1.706310680361104	-0.6325220416170569	-0.1801725589967233	1.5795052357362638	-0.6161174877257802	-0.21011118582651248	1.5486248636513524	-0.5861900289919734	-0.20060283778886268	1.547996541020874	-0.6171157539732364	-0.1738251374063443	1.569209418563568	-0.6086336479816744	-0.1844169502938777	1.991812435545893	-0.6375782910414166	-0.20841267333057983	2.053836645557616	-0.6395607647143562	-0.2067111591029126	1.9897939963730034	-0.5342222554390577	-0.20586753815255135	1.9138696280261192	-0.485678258929364	-0.23728901854195075	1.902562923608558	-0.5235829179683094	-0.15795446678998262	1.993516259564645	-0.737316474097854	-0.13865886976137998	1.9136111712269077	-0.7656159163578516	-0.14588097695699292	1.9478929489640502	-0.7755051517515062
2	0.06666666666666667	-0.1951515215449291	1.832895953372332	-0.5868156518066958	-0.21464722436398645	1.8323689371102172	-0.5220010696218289	-0.222771923458132	1.7024532673898007	-0.4703143886814069	-0.21691975631461818	1.5801209981749207	-0.4267306568289935	-0.2781214787607984	1.5382594896248631	-0.44809902146532454	-0.268050769449567	1.5475764344700966	-0.48161296791238306	-0.20766298048647777	1.573809267835424	-0.42722875833092977	-0.1800077599505317	1.8347568466532496	-0.6536035340487966	-0.1793956955633499	1.7059073886161122	-0.6228047297589616	-0.18339677474236868	1.5769461326052368	-0.6119179384841587	-0.21002841609045841	1.5474323711815865	-0.5812299790983018	-0.2033504828076667	1.5480193824277173	-0.6137431513083517	-0.17542866204385305	1.5674838306112029	-0.6105069184019556	-0.18724257517803963	1.992507052334843	-0.618288580270952	-0.20957227166580877	2.056387524911697	-0.6347038095775851	-0.20988317088048014	1.9895717226299674	-0.526380002837039	-0.2108151312001	1.914579344342654	-0.4757194046980715	-0.24407617079029872	1.9025273792351192	-0.5374972850937276	-0.16132449289271736	1.9953749764982083	-0.7182158519074515	-0.1447471242075092	1.9184901974360022	-0.7445669279385911	-1.4094606436236126	1.8498482397067506	0.5953336297021491
3	0.1	-0.2001060653945579	1.8321877626214846	-0.5766050830976825	-0.21280148049438163	1.8306285289335154	-0.5064472275067513	-0.2271017828724662	1.6984789334890504	-0.4559845237055408	-0.21691975631461818	1.5801209981749207	-0.4267306568289935	-0.2781214787607984	1.5382594896248631	-0.44809902146532454	-0.268050769449567	1.5475764344700966	-0.48161296791238306	-0.20766298048647777	1.573809267835424	-0.42722875833092977	-0.18168009890858233	1.8343636416581752	-0.6393360813483625	-0.1815547091814071	1.7057915745521104	-0.6203358000638485	-0.18320789938206997	1.5754709783412673	-0.6121024269264338	-0.21100831996286412	1.5473638950996682	-0.5845189352684182	-0.2033583814038434	1.5480202470253916	-0.6138924167783395	-0.17565601947578902	1.5660799402485346	-0.6098538678926552	-0.18976423045265906	1.9908438719434327	-0.60738714257123	-0.21078291528700915	2.05635515048431	-0.6293885159490621	-0.21416662547987367	1.9879039239573124	-0.5132745632495203	-0.22188512718697137	1.9101130461818865	-0.4583742852279598	-0.24674396463400217	1.8997504874931779	-0.5263591219458437	-0.16326716017291823	1.9948424331706078	-0.7042414391505036	-0.15592981141961487	1.914320877720891	-0.7322364520449648	-0.1720684481703405	1.9256350234255382	-0.6976182681461582
